<svg width="900" height="680" viewBox="0 0 900 680" fill="none" xmlns="http://www.w3.org/2000/svg">
  <rect width="900" height="680" rx="32" fill="#090B0E"/>
  <rect x="20" y="20" width="860" height="640" rx="24" fill="url(#paint0_linear)" stroke="#FFFFFF" stroke-opacity="0.08"/>
  <rect x="60" y="66" width="780" height="36" rx="18" fill="#10141A"/>
  <circle cx="90" cy="84" r="6" fill="#2C323B"/>
  <circle cx="110" cy="84" r="6" fill="#2C323B"/>
  <circle cx="130" cy="84" r="6" fill="#2C323B"/>
  <rect x="62" y="140" width="112" height="418" rx="20" fill="#0E1218" stroke="#FFFFFF" stroke-opacity="0.06"/>
  <rect x="198" y="140" width="486" height="196" rx="20" fill="#10151C" stroke="#FFFFFF" stroke-opacity="0.06"/>
  <rect x="198" y="362" width="486" height="196" rx="20" fill="#10151C" stroke="#FFFFFF" stroke-opacity="0.06"/>
  <rect x="708" y="140" width="132" height="418" rx="20" fill="#0E1218" stroke="#FFFFFF" stroke-opacity="0.06"/>
  <path d="M224 304C267 253 303 239 334 215C369 188 411 219 453 186C486 161 541 159 658 206" stroke="#D7E1EE" stroke-width="4" stroke-linecap="round"/>
  <path d="M224 283C265 287 324 275 382 250C434 227 495 236 553 205C592 184 622 186 658 176" stroke="#AEBFD6" stroke-width="4" stroke-linecap="round" opacity="0.65"/>
  <path d="M224 511C273 470 319 466 362 447C411 425 468 442 520 402C563 369 602 377 658 396" stroke="#E8C5A6" stroke-width="4" stroke-linecap="round"/>
  <path d="M224 490C276 497 337 487 404 458C474 427 542 445 658 441" stroke="#9FB0C4" stroke-width="4" stroke-linecap="round" opacity="0.55"/>
  <rect x="86" y="176" width="64" height="64" rx="18" fill="#141A22"/>
  <rect x="86" y="264" width="64" height="64" rx="18" fill="#141A22"/>
  <rect x="86" y="352" width="64" height="64" rx="18" fill="#141A22"/>
  <rect x="86" y="440" width="64" height="64" rx="18" fill="#141A22"/>
  <rect x="732" y="176" width="84" height="32" rx="16" fill="#141A22"/>
  <rect x="732" y="224" width="84" height="56" rx="18" fill="#141A22"/>
  <rect x="732" y="296" width="84" height="56" rx="18" fill="#141A22"/>
  <rect x="732" y="368" width="84" height="56" rx="18" fill="#141A22"/>
  <rect x="732" y="440" width="84" height="92" rx="18" fill="#141A22"/>
  <rect x="198" y="584" width="642" height="38" rx="19" fill="#11161D"/>
  <circle cx="254" cy="238" r="6" fill="#F1F4FA"/>
  <circle cx="322" cy="223" r="6" fill="#F1F4FA"/>
  <circle cx="454" cy="188" r="6" fill="#F1F4FA"/>
  <circle cx="572" cy="178" r="6" fill="#F1F4FA"/>
  <circle cx="658" cy="206" r="6" fill="#F1F4FA"/>
  <circle cx="308" cy="475" r="6" fill="#FFE0C2"/>
  <circle cx="430" cy="441" r="6" fill="#FFE0C2"/>
  <circle cx="520" cy="402" r="6" fill="#FFE0C2"/>
  <circle cx="658" cy="396" r="6" fill="#FFE0C2"/>
  <defs>
    <linearGradient id="paint0_linear" x1="450" y1="20" x2="450" y2="660" gradientUnits="userSpaceOnUse">
      <stop stop-color="#0B0D10"/>
      <stop offset="1" stop-color="#0F1319"/>
    </linearGradient>
  </defs>
</svg>
